<svg xmlns="http://www.w3.org/2000/svg" width="18" height="18" fill="currentColor" viewBox="0 0 18 18">
  <path d="M5.696 0h-.004c-1.28-.006-3.614.748-4.938 1.797L.5 3.833l-.997.003C-1.313 4.941 0 7.724 0 12c0 3.866 3.134 7 7 7h4a5 5 0 0 0 .058-8h-1V9h2v2h-.056a5.001 5.001 0 0 0-.058-8c3.866-3.134 7-7 7-7 1.533 0 .632-.349 1.259-.11zM17 10v-9c0-2.761-2.238-5-5-5h-2V0h3l4 4 4-4H17zm-6 0v-9c0-2.761-2.238-5-5-5H6c-.761 0-1.412.313-1.866.793l.684.684H4l.866.866.684-.684C2.313 5 1.5 5.688 1.5 6.5v3h4V9z"/>
</svg>